<svg id="Layer_1" data-name="Layer 1" xmlns="http://www.w3.org/2000/svg" viewBox="0 0 680 320"><defs><style>.cls-1{fill:#cf2634}.cls-2{fill:#0c090d}</style></defs><path className="cls-1" d="M185 85.93c6.75.07 10.42-3.68 8.53-8.66-15.26 1.84-12-7.47-10.57-18.15 1.85.51 2.36 1.34 3.06 5.1 15 4.25 9.87-23-7.13-10.19-5.86 1.65-7.71 8-7.71 17.64.04 11.08 5.13 14.26 13.82 14.26zM222 86.12c16.84 2.23 20-36.1 2.8-35.28C207.31 49.6 202.37 88 222 86.12zm-1.46-26.87c7.5 1.84 5.83 11.57 4.58 19.3-6.92.29-5.3-12.92-4.61-19.3zM259.92 85.68c6.3.65 15.3-1.17 10.83-9.68-1.15 0-5.48.13-7.58.13.32-9.56.64-18.22.64-22.61 0-1.66-.45-2.68-4-2.68-4.91 0-7.71 1.79-7.71 4.33 1.11 10.61.11 13 .32 26.18-.01 2.29 4 4.33 7.5 4.33zM292.08 55.87c-3.69 2.36-5.67 6.63-5.67 14.84-.52 24.62 29.09 18.46 26.75-5.09.84-14.8-13.92-19.69-21.08-9.75zm10 22.68c-6.9.29-5.27-12.92-4.59-19.3 7.51 1.84 5.84 11.57 4.59 19.3zM329.08 79.06c0 5.73.25 6.75 4.46 6.75 3.75 0 4.84-.9 5.15-4.27l.31-4.14c2.64 1 4.11 9.57 8.85 8.72a6.44 6.44 0 006.15-8.91c-2.42-.26-2.87-.38-5.67-3.95 11.37-11.07 4.72-28.07-11.72-20.89-6 .51-7.51 1.59-7.51 4.14.83 7.1-.18 15.7-.02 22.55zm10.7-19.87c6.62.33 5 7 3.31 11.4a15 15 0 00-3.82-.7zM392.12 55.11c-.3-6.17-11.8-4.39-15.22-2.29-4.46 11.65-7.83 27.45-7.83 29.1 0 4.22 6.24 4.91 8.53 3.31a47.63 47.63 0 01.77-5.6 63.21 63.21 0 006.49-.19c-.55 12.39 19.47 4.62 11.34-1.6-1.79-6.36-3.31-16.36-4.08-22.73zm-12.67 18.15c.76-4 2-9.68 2.8-12.42.51 3.5 1.27 9.68 1.78 12.17a39.09 39.09 0 01-4.58.25zM413.39 80.9c0 3.76 5.86 4.91 11.72 4.91 8.89 0 14.77-7.81 14.77-20.81.8-11.29-8.57-16.74-19-13-5.35.19-7.9 1-7.9 3.44 1.34 8.12.33 17.94.41 25.46zm10.51-21.78c9.25 1.25 6.47 23.21-.51 18.66.32-6.78.51-13.69.51-18.66zM481.72 65.62c.82-14.8-13.92-19.69-21.08-9.75-9.43 5.78-7.63 33 6.88 30.25 10.18 0 14.2-8.98 14.2-20.5zm-16.24 2.93a61.94 61.94 0 01.57-9.3c7.5 1.84 5.83 11.57 4.59 19.3-4.02-.77-5.16-2.04-5.16-10zM103.63 87.84c-22.91 0-46 52.14-46 79 0 14.76 21.07 30.14 35.21 30.14 15.23 1.15 20.78-9.57 27.07-20.15 4.57-4.64-2.31-9.36-6.3-10.61-1.54 0-2.31.93-3.39 2.16-7.23 9.07-13.53 17.22-19.37 17.22-36.79-3.47 9-107.69 26.29-81.2.67 10.24-14.11 21.12 4 24.92 6.13-4 11.26-18.51 11.84-23.07.02-7.8-16.74-18.41-29.35-18.41zM437.14 214.4c11.26-5.48 4.77-12-10.15-13.22 4.91-19.92 15.87-61.44 17.07-68.27-.87-3.17-14.47-12.76-16.46-5.23-1.84 6.3-6 27.51-10.75 38.74-2.22 5.16-16.53 27.47-21.54 14.15.34-9.26 10.92-41.08 11.53-47.66-.94-3.18-14.32-12.73-16.44-5.23-2.16 5.78-6.67 22-9.92 35.38-7.53 12.69-17.54 29.9-21.92 20.59 0-8.77 8.92-36.91 8.92-42 0-6.47-19.53-8-19.53-11.84 0-4 2.31-7.84 2.31-11.07 0-3.54-7.84-8.46-12.3-8.46-3.85 0-10.31 12-10.31 17.21s6.46 9.24 6.46 9.24c-1.23 5.49-23.73 51.53-31.53 49.66-8.56-.88 8-42.2 6.15-44.74 0-6.47-19.53-8-19.53-11.84 0-4 2.31-7.84 2.31-11.07 0-3.54-7.84-8.46-12.3-8.46-3.85 0-10.31 12-10.31 17.21s6.46 9.24 6.46 9.24a261.84 261.84 0 01-11.06 23.97c-8.54 17.86-22.47 26-30.45 25.38-11.68-.53-15.49-10.44-12-16.92a61.61 61.61 0 0014.46 2.15c10 0 19.84-24.6 19.84-32.29 0-6.62-14.15-14.29-22-14.29-11.29 0-24.51 20.51-29.56 37.7-8.36 13.75-18.36 32.16-23.5 19.65 0-8.15 9.53-38.14 9.53-45.36-6.07-22-28.89-6.92-34.91-1.69-.48.92 6.59-20.75 8.77-31.37-.78-3-14.92-12.92-16.46-4.92-4.46 13.68-23.06 84.57-23.06 90.1.24 4.68 14.83 12.78 16 4.62.92-4.77 7.07-30 11.23-43.06 3.1-8.33 16.94-18.52 19.22-7.07 0 5.84-7.69 30.44-7.69 40.29 0 6.92 12.92 13.38 19.84 13.38 7.74 0 14.39-6.66 20.54-15.85 4.82 9.08 19.38 15.85 30.52 15.85 22.52 3 43.61-41.19 49.21-55.83 0 0 6.15 1.24 6.15 2.93 0 7.08-8.15 29.06-8.15 41.05 0 6 12.31 11.85 19.23 11.85 15.36 3.55 38.5-48.5 41.52-55.83 0 0 6.15 1.24 6.15 2.93 0 7.08-8.15 29.06-8.15 41.05 0 6 12.3 11.85 19.22 11.85 6.53 0 12.36-4.88 17.78-12 10.8 16 25.33 15.49 37.72-1.48-.16.57-2.68 9.81-5.53 19.5-23.56 6.07-44.16 28-14.84 39.26-3.81-9.35 18-15 16-1.73 10.49-6.22 7.75-13.22 13.91-31.22 7.37 1.23 9.84 5.07 12.3 5.07zm-197.76-77.65c11.56 1.07-1.49 25.95-16.46 25.52 1.38-7.22 10.46-25.52 16.46-25.52zm162.86 89.19c-13.74 15-20.6-5.9 4.92-14.61-2.01 6.46-3.84 12.15-4.92 14.61zM538.79 172.89c-1.11-3.1-8.62-9.8-11.38-4.46-7.22 9.07-13.53 17.22-19.37 17.22-6.77 0-14.46-9.07-14.46-17.84 0-21.38 18.3-68 34.3-68 11.25 1.46 4.91 11.26 2.3 18.91-.77 1.85-1.38 3.08-1.38 4.16.78 3.44 10.22 9.75 12.45 4 3.85-6.31 8.92-16.15 8.92-20.61 0-7.85-16.76-18.46-29.37-18.46-22.91 0-46 52.14-46 79 0 14.76 21.07 30.14 35.22 30.14 16.32 1.29 23.29-12.12 28.77-24.06zM574.27 197c17.53 0 31.83-33.83 31.83-51.52 0-9.53-16.76-20.76-28.6-20.76-16.46 0-31.68 29.68-31.68 51.06 0 11.1 17.68 21.22 28.45 21.22zm10.46-60.9c20.3 2.51-8.52 53.92-13.54 50.29-19.8-3.85 8.2-54.39 13.54-50.26zM613.12 175.35c-5.84 0-9.53 9.22-9.53 14.45 0 3.38 5.69 7.54 9.23 7.54 5.84 0 9.53-9.23 9.53-14.46 0-3.38-5.69-7.53-9.23-7.53z"/><path class="cls-2" d="M105.93 235.48c-17 2.63-14.41.73-14.43 15.83.77 5.49-3.48 18.36 4 17.73 5.19.51 4.94-3.49 5.19-7.21 12.85 4.72 22.82-25.83 5.24-26.35zm-1.65 19.13a8.9 8.9 0 01-3.24-.67l.49-10.39c6.56-.73 5.17 10.69 2.75 11.06zM141.26 260.3l.31-22.26c0-1.58-.31-2.56-3.79-2.56-7.26.1-8.38 3.32-6.73 8.37-.11 6-.19 13.38-.24 18.83-2.19 12.74 18.31 4.39 10.45-2.38zM165.11 235.91c-5.87 0-7.34 1.34-7.34 4 1.43 7.53.28 17.27.43 24.39.39 3.77 5.92 4.78 9.66 4.53 7 .18 13.47.07 10.76-7.71l-10.62-.03.06-3.42c6.5.24 11.78-.23 9.17-7.4-.86 0-6.42 0-9.05.25l.19-5.69c7.09.41 15.57-.1 11.25-8.74-2.17 0-11.21-.18-14.51-.18zM212.66 249.05c1.92-5.62-2.64-10.73-8.07-7.64 0 1.4 0 5.25-.06 8-4.54-.77-10.49 2.27-7.52 7 1.84 0 4.59.12 7.22.12-.94 4.94 1.46 10.4 6.78 7.89.19-2.15.31-4.84.55-7.59 6.43 1.21 12.13-3.31 7.89-8.31-1.16.16-3.67.35-6.79.53zM251.91 235.48c-17 2.63-14.41.73-14.43 15.83.77 5.49-3.48 18.36 4 17.73 5.19.51 4.94-3.49 5.19-7.21 12.85 4.72 22.82-25.83 5.24-26.35zm-1.65 19.13a8.9 8.9 0 01-3.24-.67l.49-10.39c6.56-.73 5.17 10.69 2.75 11.06zM294.58 257c3.79-4.28 5.38-7 5.38-12.11.92-9.08-9.65-11.31-16.63-7.95-5.81.49-7.21 1.53-7.21 4 2.19 6.07-4.26 29.54 4.28 28.12 5.58.62 4.89-4.28 5.25-8.07 2.54.95 4 9.19 8.5 8.38a6.18 6.18 0 005.87-8.56c-2.32-.27-2.75-.39-5.44-3.81zm-5-2.57a14.35 14.35 0 00-3.67-.67l.49-10.27c6.35.31 4.83 6.7 3.17 10.94zM329.91 235.48c-16.76-1.2-21.51 35.65-2.69 33.87 16.17 2.14 19.17-34.66 2.69-33.87zm.31 26.59c-6.62.28-5.06-12.39-4.4-18.52 7.18 1.77 5.6 11.11 4.4 18.52zM377 235.6a5.22 5.22 0 00-3.24 1.1c0 3.55-1.65 12.78-4 22.68-.37-3.42-2.14-14.92-2.44-17.42.43-12.53-18.81-4.64-10.7 2.44 3.39 7.91.15 31.37 13.69 23.24 4.52-1 5.93-2.27 6.73-4.65 3.8-13.44 11.32-26.41-.04-27.39zM409.87 262.74c0 4.17-3.17 6.42-7.45 6.42-8.13.64-3.67-12.27-4.65-18.15 1.3-6.63-4.77-15.73 6.84-15.54 3.49 0 3.8 1 3.8 2.58 0 2-.27 19.79-.31 22.25a2.83 2.83 0 011.77 2.44zM440.56 251.43c-8.07-5.54-7.52-4.11-6.78-8.49 2.93 1 4 2.07 4.46 4.34 9.84 2.5 9.72-12.88-2.39-11.8-9.83-.12-15.86 14-6.66 19.68 6.36 4.4 7.28 5.26 7.28 6.06-1.68 3.29-4.71.93-7.34-4-10.43-.65-6.49 13.75 4.83 12 11.77.19 16.35-12.5 6.6-17.79zM472.17 260.3l.3-22.26c0-1.58-.3-2.56-3.79-2.56-7.26.1-8.38 3.32-6.72 8.37-.11 6-.2 13.38-.25 18.83-2.19 12.74 18.29 4.39 10.46-2.38zM503 235.48c-16.77-1.2-21.52 35.65-2.69 33.87 16.14 2.14 19.14-34.66 2.69-33.87zm.3 26.59c-6.62.28-5.06-12.39-4.4-18.52 7.18 1.77 5.58 11.11 4.38 18.52zM550.6 235.66a6.13 6.13 0 00-3.85 1.1c0 1.59-.06 7.34-.06 11-1.53-2.82-4.77-8.87-6.12-10.7-2.33-3.19-12.33-.61-11.37 2.75 1.58 8.2.71 22.94 1 27.88 9.84 6.66 8.19-10.23 8.37-16.51 2.45 3.91 4.71 7.95 7.1 12 .3 4.34.55 5.93 3.6 5.93s4.77-1 5.2-3.6c1-4.89 1-20.67 1-25.93-.04-2.76-1.94-3.92-4.87-3.92zM587.34 251.43c-8.07-5.54-7.52-4.11-6.79-8.49 2.94 1 4 2.07 4.46 4.34 9.85 2.5 9.72-12.88-2.38-11.8-9.84-.12-15.87 14-6.67 19.68 6.36 4.4 7.28 5.26 7.28 6.06-1.68 3.29-4.7.93-7.34-4-10.43-.65-6.49 13.75 4.83 12 11.77.19 16.35-12.5 6.61-17.79z"/></svg>